<svg width="600" height="600" viewBox="0 0 600 600" fill="none" xmlns="http://www.w3.org/2000/svg">
<path d="M600 300C600 465.685 465.685 600 300 600C134.315 600 0 465.685 0 300C0 134.315 134.315 0 300 0C465.685 0 600 134.315 600 300ZM117.196 300C117.196 400.96 199.04 482.804 300 482.804C400.96 482.804 482.804 400.96 482.804 300C482.804 199.04 400.96 117.196 300 117.196C199.04 117.196 117.196 199.04 117.196 300Z" fill="white"/>
<path d="M416 335.5C416 366.704 390.704 392 359.5 392C328.296 392 303 366.704 303 335.5C303 304.296 328.296 279 359.5 279C390.704 279 416 304.296 416 335.5ZM325.072 335.5C325.072 354.514 340.486 369.928 359.5 369.928C378.514 369.928 393.928 354.514 393.928 335.5C393.928 316.486 378.514 301.072 359.5 301.072C340.486 301.072 325.072 316.486 325.072 335.5Z" fill="white"/>
<rect x="209" y="226" width="165" height="27" fill="white"/>
<rect x="483" y="162" width="14" height="27" fill="#F2F2F2"/>
<rect x="88" y="162" width="14" height="27" fill="#F2F2F2"/>
</svg>
